<svg xmlns="http://www.w3.org/2000/svg" width="39.484" height="38.1"><g data-name="Group 40"><path d="M37.888 9.146c-.106.08-4.57 3.582-4.57 3.582v18.198a2.394 2.394 0 0 1-2.391 2.392H7.174a2.393 2.393 0 0 1-2.392-2.392V7.174a2.392 2.392 0 0 1 2.392-2.392H28.66A92.77 92.77 0 0 1 34.46.932 7.11 7.11 0 0 0 30.926 0H7.174A7.18 7.18 0 0 0 0 7.174v23.753C0 34.882 3.217 38.1 7.174 38.1h23.753c3.955 0 7.173-3.218 7.173-7.173V8.987l-.212.159Z" fill="#dd2a37" fill-rule="evenodd" data-name="Path 2296"/><path d="M35.852 2.323a92.847 92.847 0 0 0-7.514 5.066 129.85 129.85 0 0 0-7.024 5.648c-.631.55-1.26 1.105-1.884 1.662a24.61 24.61 0 0 1-.582-.705l-.866-1.126-.434-.562-.407-.583-.82-1.164c-.142-.19-.266-.393-.393-.595a3.704 3.704 0 0 0-.997-1.062 2.9 2.9 0 0 0-.746-.388l-.34-.116a2.863 2.863 0 0 0-3.76 2.576c-.062 1.271.526 2.18 1.139 3.054l.934 1.309.47.652.502.63 1.01 1.254c.272.322.558.635.842.948l-.297.285-1.603 1.574c-.528.532-1.062 1.056-1.585 1.594a17.277 17.277 0 0 0-1.485 1.695 12.584 12.584 0 0 0-.954 1.433c-.096.169-.184.343-.274.536-.31.673-.323 1.49.043 2.2a2.498 2.498 0 0 0 3.364 1.076l.145-.075a5.13 5.13 0 0 0 .473-.279c.155-.1.305-.204.455-.312.299-.214.581-.442.861-.675.558-.467 1.08-.97 1.583-1.491.502-.523 1.016-1.035 1.524-1.553l1.543-1.536.388-.377c.244.208.49.414.741.613.209.172.42.342.631.51l.656.482.656.48c.218.16.45.306.674.46.225.152.451.303.679.45.228.148.467.284.7.426.235.14.465.284.704.418l.722.396c.24.132.49.254.739.376s.494.246.753.36c.258.114.51.227.783.334.137.054.262.107.409.16l.476.171a2.367 2.367 0 0 0 2.137-4.18l-.407-.279-.032-.022c-.006-.005-.039-.023-.057-.034l-.13-.074c-.084-.046-.185-.109-.276-.162-.187-.105-.379-.232-.57-.35-.191-.112-.383-.244-.574-.37-.19-.125-.382-.25-.57-.388l-.569-.397c-.189-.134-.373-.28-.56-.418-.185-.142-.373-.276-.555-.423a34.48 34.48 0 0 0-.547-.44c-.18-.149-.368-.287-.545-.442l-.53-.461-.532-.46c-.17-.163-.341-.324-.515-.483-.098-.087-.192-.177-.289-.266.575-.535 1.152-1.066 1.734-1.591l1.61-1.461 1.634-1.429c.542-.48 1.096-.943 1.647-1.411l.827-.702.413-.35.42-.34 1.679-1.368c.558-.457 1.135-.884 1.701-1.33l.85-.667c.284-.223.577-.427.865-.642l1.728-1.289.057-.042a2.393 2.393 0 0 0-2.678-3.958Z" fill="#dd2a37" fill-rule="evenodd" data-name="Path 2297"/></g></svg>