<?xml version="1.0" encoding="UTF-8" standalone="no"?>
<!DOCTYPE svg PUBLIC "-//W3C//DTD SVG 1.1//EN" "http://www.w3.org/Graphics/SVG/1.1/DTD/svg11.dtd">
<svg xmlns="http://www.w3.org/2000/svg" version="1.1" viewBox="0.00 0.00 48.00 48.00">
<g stroke-width="2.00" fill="none" stroke-linecap="butt">
<path stroke="#7ab141" vector-effect="non-scaling-stroke" d="
  M 41.59 4.32
  Q 40.74 3.86 40.50 4.52
  Q 38.64 9.69 35.65 14.60"
/>
<path stroke="#7ab141" vector-effect="non-scaling-stroke" d="
  M 44.96 20.95
  Q 43.99 20.70 43.16 21.18
  Q 39.54 23.25 37.71 26.18"
/>
<path stroke="#818c48" vector-effect="non-scaling-stroke" d="
  M 33.87 32.89
  Q 33.09 33.55 32.03 32.97"
/>
<path stroke="#7ab141" vector-effect="non-scaling-stroke" d="
  M 28.12 15.14
  Q 26.74 11.58 22.78 9.58
  Q 22.61 9.49 22.64 9.31
  Q 22.66 9.19 22.72 9.05"
/>
<path stroke="#604637" vector-effect="non-scaling-stroke" d="
  M 19.21 33.01
  Q 20.31 34.86 20.45 37.24
  A 0.69 0.68 80.2 0 0 21.32 37.86
  C 23.03 37.36 25.73 37.97 26.77 36.20
  Q 27.04 35.74 26.75 35.30
  Q 26.47 34.85 25.97 34.62
  Q 25.51 34.40 25.78 33.97
  Q 26.15 33.39 26.84 33.04"
/>
<path stroke="#818c48" vector-effect="non-scaling-stroke" d="
  M 9.54 32.83
  Q 8.16 33.24 7.68 32.47"
/>
<path stroke="#6c9d36" vector-effect="non-scaling-stroke" d="
  M 27.79 20.78
  Q 22.44 22.43 21.41 25.73"
/>
<path stroke="#818c48" vector-effect="non-scaling-stroke" d="
  M 19.24 32.72
  Q 18.30 33.42 16.67 32.83"
/>
<path stroke="#7ab141" vector-effect="non-scaling-stroke" d="
  M 15.62 24.59
  Q 14.73 21.31 10.82 19.02
  A 0.83 0.82 42.5 0 0 9.93 19.05
  L 9.63 19.25"
/>
<path stroke="#7ab141" vector-effect="non-scaling-stroke" d="
  M 4.49 24.29
  L 7.13 28.60
  A 1.25 1.24 34.8 0 1 7.29 29.48
  L 6.97 31.23"
/>
<path stroke="#9c8279" vector-effect="non-scaling-stroke" d="
  M 29.7211 37.3612
  A 1.17 1.04 104.8 0 0 31.0255 36.4957
  A 1.17 1.04 104.8 0 0 30.3189 35.0988
  A 1.17 1.04 104.8 0 0 29.0145 35.9643
  A 1.17 1.04 104.8 0 0 29.7211 37.3612"
/>
<path stroke="#9c8279" vector-effect="non-scaling-stroke" d="
  M 6.3868 37.3895
  A 1.17 1.05 82.3 0 0 7.2705 36.0893
  A 1.17 1.05 82.3 0 0 6.0732 35.0705
  A 1.17 1.05 82.3 0 0 5.1895 36.3707
  A 1.17 1.05 82.3 0 0 6.3868 37.3895"
/>
<path stroke="#9c8279" vector-effect="non-scaling-stroke" d="
  M 19.21 36.23
  A 1.11 1.11 0.0 0 0 18.10 35.12
  A 1.11 1.11 0.0 0 0 16.99 36.23
  A 1.11 1.11 0.0 0 0 18.10 37.34
  A 1.11 1.11 0.0 0 0 19.21 36.23"
/>
<path stroke="#9c8279" vector-effect="non-scaling-stroke" d="
  M 42.87 36.29
  A 1.12 1.12 0.0 0 0 41.75 35.17
  A 1.12 1.12 0.0 0 0 40.63 36.29
  A 1.12 1.12 0.0 0 0 41.75 37.41
  A 1.12 1.12 0.0 0 0 42.87 36.29"
/>
<path stroke="#9c8279" vector-effect="non-scaling-stroke" d="
  M 36.93 40.73
  A 1.10 1.10 0.0 0 0 35.83 39.63
  A 1.10 1.10 0.0 0 0 34.73 40.73
  A 1.10 1.10 0.0 0 0 35.83 41.83
  A 1.10 1.10 0.0 0 0 36.93 40.73"
/>
<path stroke="#9c8279" vector-effect="non-scaling-stroke" d="
  M 11.31 39.94
  A 1.02 1.02 0.0 0 0 12.00 41.84
  L 12.71 41.70
  A 0.87 0.87 0.0 0 0 13.27 40.38
  Q 12.55 39.27 11.31 39.94"
/>
<path stroke="#9c8279" vector-effect="non-scaling-stroke" d="
  M 25.12 40.76
  A 1.08 1.08 0.0 0 0 24.04 39.68
  A 1.08 1.08 0.0 0 0 22.96 40.76
  A 1.08 1.08 0.0 0 0 24.04 41.84
  A 1.08 1.08 0.0 0 0 25.12 40.76"
/>
</g>
<path fill="#689f38" d="
  M 41.59 4.32
  Q 40.74 3.86 40.50 4.52
  Q 38.64 9.69 35.65 14.60
  Q 31.47 13.28 31.98 10.03
  C 32.49 6.85 37.76 4.20 41.02 3.30
  Q 41.50 3.17 41.63 3.65
  Q 41.70 3.95 41.59 4.32
  Z"
/>
<path fill="#8bc34a" d="
  M 41.59 4.32
  C 42.60 7.37 45.01 11.57 42.50 14.49
  Q 40.31 17.06 37.56 15.24
  Q 37.13 14.95 36.85 15.39
  Q 33.72 20.37 34.02 26.32
  Q 34.05 26.91 34.50 26.52
  L 36.54 24.74
  Q 36.84 24.48 36.70 24.09
  C 35.00 19.43 41.98 19.34 44.74 20.02
  Q 45.16 20.12 45.06 20.55
  L 44.96 20.95
  Q 43.99 20.70 43.16 21.18
  Q 39.54 23.25 37.71 26.18
  Q 33.68 29.11 33.87 32.89
  Q 33.09 33.55 32.03 32.97
  C 31.99 26.79 33.55 19.82 28.12 15.14
  Q 26.74 11.58 22.78 9.58
  Q 22.61 9.49 22.64 9.31
  Q 22.66 9.19 22.72 9.05
  C 25.02 8.92 31.45 9.59 29.57 13.39
  Q 29.36 13.82 29.73 14.12
  Q 31.70 15.72 32.83 17.97
  Q 33.22 18.75 33.44 17.91
  Q 34.05 15.68 35.65 14.60
  Q 38.64 9.69 40.50 4.52
  Q 40.74 3.86 41.59 4.32
  Z"
/>
<path fill="#689f38" d="
  M 22.72 9.05
  Q 22.66 9.19 22.64 9.31
  Q 22.61 9.49 22.78 9.58
  Q 26.74 11.58 28.12 15.14
  C 23.40 18.59 22.37 12.24 22.12 9.40
  Q 22.09 9.07 22.42 9.05
  Q 22.56 9.04 22.72 9.05
  Z"
/>
<path fill="#8bc34a" d="
  M 27.79 20.78
  Q 22.44 22.43 21.41 25.73
  Q 18.91 28.72 19.24 32.72
  Q 18.30 33.42 16.67 32.83
  Q 16.92 28.68 15.62 24.59
  Q 14.73 21.31 10.82 19.02
  A 0.83 0.82 42.5 0 0 9.93 19.05
  L 9.63 19.25
  Q 9.39 18.88 9.36 18.60
  Q 9.29 18.02 9.86 18.00
  C 11.54 17.91 19.85 18.64 17.03 22.59
  Q 16.73 23.00 16.93 23.46
  L 18.02 26.01
  Q 18.14 26.29 18.33 26.06
  L 20.23 23.76
  Q 20.38 23.58 20.29 23.35
  Q 19.16 20.52 22.01 19.71
  Q 27.25 18.23 27.79 20.78
  Z"
/>
<path fill="#689f38" d="
  M 15.62 24.59
  C 10.31 27.20 10.33 22.58 9.63 19.25
  L 9.93 19.05
  A 0.83 0.82 42.5 0 1 10.82 19.02
  Q 14.73 21.31 15.62 24.59
  Z"
/>
<path fill="#4d7621" d="
  M 27.79 20.78
  C 27.01 23.33 25.68 29.71 21.41 25.73
  Q 22.44 22.43 27.79 20.78
  Z"
/>
<path fill="#689f38" d="
  M 44.96 20.95
  C 44.45 23.07 44.09 25.80 42.59 27.25
  Q 40.36 29.41 37.71 26.18
  Q 39.54 23.25 43.16 21.18
  Q 43.99 20.70 44.96 20.95
  Z"
/>
<path fill="#689f38" d="
  M 4.49 24.29
  L 7.13 28.60
  A 1.25 1.24 34.8 0 1 7.29 29.48
  L 6.97 31.23
  C 2.20 32.00 2.92 27.51 3.14 24.66
  Q 3.17 24.20 3.61 24.05
  Q 4.09 23.89 4.49 24.29
  Z"
/>
<path fill="#8bc34a" d="
  M 4.49 24.29
  Q 9.02 24.30 9.99 27.45
  Q 10.42 28.87 8.97 29.38
  Q 8.50 29.54 8.72 29.99
  Q 9.38 31.30 9.54 32.83
  Q 8.16 33.24 7.68 32.47
  Q 7.55 31.76 6.97 31.23
  L 7.29 29.48
  A 1.25 1.24 34.8 0 0 7.13 28.60
  L 4.49 24.29
  Z"
/>
<path fill="#775446" d="
  M 7.68 32.47
  Q 8.16 33.24 9.54 32.83
  L 16.67 32.83
  Q 18.30 33.42 19.24 32.72
  Q 19.22 32.86 19.21 33.01
  Q 20.31 34.86 20.45 37.24
  A 0.69 0.68 80.2 0 0 21.32 37.86
  C 23.03 37.36 25.73 37.97 26.77 36.20
  Q 27.04 35.74 26.75 35.30
  Q 26.47 34.85 25.97 34.62
  Q 25.51 34.40 25.78 33.97
  Q 26.15 33.39 26.84 33.04
  L 32.03 32.97
  Q 33.09 33.55 33.87 32.89
  L 44.49 33.00
  Q 45.00 33.00 45.00 33.51
  L 44.99 43.25
  A 0.75 0.74 -90.0 0 1 44.25 44.00
  L 3.50 44.00
  Q 3.00 44.00 3.00 43.50
  L 3.00 33.51
  Q 3.00 33.02 3.49 33.02
  L 7.21 32.99
  Q 7.40 32.98 7.47 32.81
  Q 7.58 32.57 7.68 32.47
  Z
  M 29.7211 37.3612
  A 1.17 1.04 104.8 0 0 31.0255 36.4957
  A 1.17 1.04 104.8 0 0 30.3189 35.0988
  A 1.17 1.04 104.8 0 0 29.0145 35.9643
  A 1.17 1.04 104.8 0 0 29.7211 37.3612
  Z
  M 6.3868 37.3895
  A 1.17 1.05 82.3 0 0 7.2705 36.0893
  A 1.17 1.05 82.3 0 0 6.0732 35.0705
  A 1.17 1.05 82.3 0 0 5.1895 36.3707
  A 1.17 1.05 82.3 0 0 6.3868 37.3895
  Z
  M 19.21 36.23
  A 1.11 1.11 0.0 0 0 18.10 35.12
  A 1.11 1.11 0.0 0 0 16.99 36.23
  A 1.11 1.11 0.0 0 0 18.10 37.34
  A 1.11 1.11 0.0 0 0 19.21 36.23
  Z
  M 42.87 36.29
  A 1.12 1.12 0.0 0 0 41.75 35.17
  A 1.12 1.12 0.0 0 0 40.63 36.29
  A 1.12 1.12 0.0 0 0 41.75 37.41
  A 1.12 1.12 0.0 0 0 42.87 36.29
  Z
  M 36.93 40.73
  A 1.10 1.10 0.0 0 0 35.83 39.63
  A 1.10 1.10 0.0 0 0 34.73 40.73
  A 1.10 1.10 0.0 0 0 35.83 41.83
  A 1.10 1.10 0.0 0 0 36.93 40.73
  Z
  M 11.31 39.94
  A 1.02 1.02 0.0 0 0 12.00 41.84
  L 12.71 41.70
  A 0.87 0.87 0.0 0 0 13.27 40.38
  Q 12.55 39.27 11.31 39.94
  Z
  M 25.12 40.76
  A 1.08 1.08 0.0 0 0 24.04 39.68
  A 1.08 1.08 0.0 0 0 22.96 40.76
  A 1.08 1.08 0.0 0 0 24.04 41.84
  A 1.08 1.08 0.0 0 0 25.12 40.76
  Z"
/>
<path fill="#483727" d="
  M 19.21 33.01
  L 26.84 33.04
  Q 26.15 33.39 25.78 33.97
  Q 25.51 34.40 25.97 34.62
  Q 26.47 34.85 26.75 35.30
  Q 27.04 35.74 26.77 36.20
  C 25.73 37.97 23.03 37.36 21.32 37.86
  A 0.69 0.68 80.2 0 1 20.45 37.24
  Q 20.31 34.86 19.21 33.01
  Z"
/>
<ellipse fill="#c0afab" cx="0.00" cy="0.00" transform="translate(30.02,36.23) rotate(104.8)" rx="1.17" ry="1.04"/>
<ellipse fill="#c0afab" cx="0.00" cy="0.00" transform="translate(6.23,36.23) rotate(82.3)" rx="1.17" ry="1.05"/>
<circle fill="#c0afab" cx="18.10" cy="36.23" r="1.11"/>
<circle fill="#c0afab" cx="41.75" cy="36.29" r="1.12"/>
<circle fill="#c0afab" cx="35.83" cy="40.73" r="1.10"/>
<path fill="#c0afab" d="
  M 11.31 39.94
  Q 12.55 39.27 13.27 40.38
  A 0.87 0.87 0.0 0 1 12.71 41.70
  L 12.00 41.84
  A 1.02 1.02 0.0 0 1 11.31 39.94
  Z"
/>
<circle fill="#c0afab" cx="24.04" cy="40.76" r="1.08"/>
</svg>
