<?xml version="1.0" encoding="UTF-8" standalone="no"?>
<!DOCTYPE svg PUBLIC "-//W3C//DTD SVG 1.1//EN" "http://www.w3.org/Graphics/SVG/1.1/DTD/svg11.dtd">
<svg xmlns="http://www.w3.org/2000/svg" version="1.1" viewBox="0.00 0.00 48.00 48.00">
<g stroke-width="2.00" fill="none" stroke-linecap="butt">
<path stroke="#7ab141" vector-effect="non-scaling-stroke" d="
  M 26.38 15.31
  Q 26.44 10.89 31.04 6.47
  Q 31.32 6.20 31.37 5.97
  Q 31.46 5.53 31.00 5.35"
/>
<path stroke="#7ab141" vector-effect="non-scaling-stroke" d="
  M 40.62 20.73
  Q 35.77 21.78 30.53 23.60
  Q 29.03 24.13 28.72 26.37"
/>
<path stroke="#828c49" vector-effect="non-scaling-stroke" d="
  M 26.12 31.81
  Q 25.26 32.43 23.84 31.99"
/>
<path stroke="#7ab141" vector-effect="non-scaling-stroke" d="
  M 19.52 24.68
  Q 14.75 20.08 7.29 17.17
  Q 6.95 17.04 6.72 17.33
  Q 6.56 17.53 6.71 17.72"
/>
<path stroke="#836256" vector-effect="non-scaling-stroke" d="
  M 40.37 42.04
  L 37.03 37.86
  Q 36.68 37.42 36.14 37.29
  Q 34.12 36.81 32.63 38.22
  A 1.08 1.05 28.1 0 1 31.70 38.49
  Q 28.98 38.00 26.26 38.55
  Q 25.76 38.65 25.34 38.34
  C 22.90 36.56 19.13 37.52 16.65 37.28
  A 1.40 1.36 -58.9 0 0 15.73 37.52
  Q 13.92 38.80 11.85 39.35
  C 10.40 39.73 9.34 40.57 9.35 42.05"
/>
</g>
<path fill="#689f38" d="
  M 26.38 15.31
  Q 26.44 10.89 31.04 6.47
  Q 31.32 6.20 31.37 5.97
  Q 31.46 5.53 31.00 5.35
  Q 31.70 5.08 32.26 5.11
  Q 32.76 5.13 32.79 5.63
  C 33.07 9.50 33.96 18.91 26.38 15.31
  Z"
/>
<path fill="#8bc34a" d="
  M 31.00 5.35
  Q 31.46 5.53 31.37 5.97
  Q 31.32 6.20 31.04 6.47
  Q 26.44 10.89 26.38 15.31
  L 25.47 26.07
  A 0.33 0.33 0.0 0 0 26.08 26.28
  Q 26.97 24.93 28.24 23.95
  Q 28.70 23.59 28.43 23.07
  C 26.94 20.14 29.83 18.02 32.51 18.08
  Q 35.83 18.16 40.62 20.73
  Q 35.77 21.78 30.53 23.60
  Q 29.03 24.13 28.72 26.37
  Q 26.63 28.21 26.12 31.81
  Q 25.26 32.43 23.84 31.99
  Q 22.88 28.31 19.52 24.68
  Q 14.75 20.08 7.29 17.17
  Q 6.95 17.04 6.72 17.33
  Q 6.56 17.53 6.71 17.72
  Q 6.48 17.64 6.32 17.49
  Q 5.95 17.12 6.43 16.91
  Q 11.25 14.91 16.00 15.19
  C 19.98 15.43 23.77 18.95 20.55 22.95
  Q 20.16 23.44 20.67 23.79
  Q 21.95 24.68 22.82 25.97
  A 0.38 0.38 0.0 0 0 23.51 25.74
  Q 23.31 19.73 25.13 14.02
  Q 25.30 13.50 24.79 13.29
  Q 22.36 12.26 23.02 9.75
  C 23.77 6.90 28.36 5.54 31.00 5.35
  Z"
/>
<path fill="#689f38" d="
  M 19.52 24.68
  C 18.23 31.53 11.36 29.63 9.46 24.79
  Q 8.06 21.24 6.71 17.72
  Q 6.56 17.53 6.72 17.33
  Q 6.95 17.04 7.29 17.17
  Q 14.75 20.08 19.52 24.68
  Z"
/>
<path fill="#689f38" d="
  M 40.62 20.73
  Q 39.31 23.70 37.12 26.38
  Q 32.31 32.28 28.72 26.37
  Q 29.03 24.13 30.53 23.60
  Q 35.77 21.78 40.62 20.73
  Z"
/>
<path fill="#795548" d="
  M 26.12 31.81
  L 28.69 33.03
  Q 29.16 33.25 29.60 32.99
  Q 34.10 30.43 36.61 34.75
  Q 36.84 35.14 37.30 35.10
  C 38.25 35.02 39.00 34.96 39.82 35.54
  Q 44.01 38.52 40.37 42.04
  L 37.03 37.86
  Q 36.68 37.42 36.14 37.29
  Q 34.12 36.81 32.63 38.22
  A 1.08 1.05 28.1 0 1 31.70 38.49
  Q 28.98 38.00 26.26 38.55
  Q 25.76 38.65 25.34 38.34
  C 22.90 36.56 19.13 37.52 16.65 37.28
  A 1.40 1.36 -58.9 0 0 15.73 37.52
  Q 13.92 38.80 11.85 39.35
  C 10.40 39.73 9.34 40.57 9.35 42.05
  Q 3.82 40.60 7.16 36.66
  Q 7.52 36.23 8.08 36.18
  L 9.58 36.02
  Q 10.11 35.97 10.43 35.53
  Q 12.25 33.00 14.93 34.76
  Q 15.42 35.08 15.88 34.73
  Q 17.37 33.62 19.15 34.23
  Q 19.63 34.39 20.01 34.06
  Q 21.66 32.62 23.84 31.99
  Q 25.26 32.43 26.12 31.81
  Z"
/>
<path fill="#8d6e63" d="
  M 40.37 42.04
  L 9.35 42.05
  C 9.34 40.57 10.40 39.73 11.85 39.35
  Q 13.92 38.80 15.73 37.52
  A 1.40 1.36 -58.9 0 1 16.65 37.28
  C 19.13 37.52 22.90 36.56 25.34 38.34
  Q 25.76 38.65 26.26 38.55
  Q 28.98 38.00 31.70 38.49
  A 1.08 1.05 28.1 0 0 32.63 38.22
  Q 34.12 36.81 36.14 37.29
  Q 36.68 37.42 37.03 37.86
  L 40.37 42.04
  Z"
/>
</svg>
