<?xml version="1.0" encoding="UTF-8" standalone="no"?>
<!DOCTYPE svg PUBLIC "-//W3C//DTD SVG 1.1//EN" "http://www.w3.org/Graphics/SVG/1.1/DTD/svg11.dtd">
<svg xmlns="http://www.w3.org/2000/svg" version="1.1" viewBox="0.00 0.00 48.00 48.00">
<g stroke-width="2.00" fill="none" stroke-linecap="butt">
<path stroke="#7ab141" vector-effect="non-scaling-stroke" d="
  M 22.96 5.35
  Q 23.12 5.64 23.14 6.03
  Q 23.16 6.43 23.30 6.80
  L 27.76 19.08"
/>
<path stroke="#828c49" vector-effect="non-scaling-stroke" d="
  M 28.02 23.93
  Q 26.54 25.47 25.98 24.75"
/>
<path stroke="#bc864b" vector-effect="non-scaling-stroke" d="
  M 18.07 25.82
  Q 22.15 28.23 26.20 30.32
  Q 27.85 31.17 28.33 33.96
  Q 28.37 34.20 28.59 34.08
  L 36.11 29.63"
/>
</g>
<path fill="#8bc34a" d="
  M 22.96 5.35
  Q 23.12 5.64 23.14 6.03
  Q 23.16 6.43 23.30 6.80
  L 27.76 19.08
  L 28.02 23.93
  Q 26.54 25.47 25.98 24.75
  L 25.89 21.12
  Q 25.87 20.57 25.35 20.72
  C 20.91 22.06 18.38 18.49 18.99 14.42
  C 19.41 11.56 21.25 8.30 22.17 5.45
  Q 22.27 5.12 22.45 5.11
  Q 22.65 5.10 22.96 5.35
  Z"
/>
<path fill="#689f38" d="
  M 22.96 5.35
  C 26.68 7.05 34.76 11.03 32.58 16.57
  Q 31.52 19.27 27.76 19.08
  L 23.30 6.80
  Q 23.16 6.43 23.14 6.03
  Q 23.12 5.64 22.96 5.35
  Z"
/>
<path fill="#ffb74d" d="
  M 18.07 25.82
  Q 22.15 28.23 26.20 30.32
  Q 27.85 31.17 28.33 33.96
  Q 28.37 34.20 28.59 34.08
  L 36.11 29.63
  Q 42.30 29.37 42.97 32.49
  A 2.27 2.27 0.0 0 1 41.93 34.92
  L 28.03 43.33
  A 4.00 4.00 0.0 0 1 24.06 43.42
  L 9.48 35.53
  Q 8.99 35.26 8.53 35.57
  L 5.52 37.54
  Q 5.01 37.88 5.01 37.26
  L 5.00 27.57
  Q 5.00 27.15 5.35 26.94
  Q 7.98 25.36 10.55 23.82
  C 12.91 22.41 15.96 24.85 18.07 25.82
  Z"
/>
<path fill="#795548" d="
  M 25.98 24.75
  Q 26.54 25.47 28.02 23.93
  Q 29.25 24.08 30.30 24.77
  Q 30.73 25.05 31.24 25.05
  Q 33.70 25.04 33.92 27.47
  A 0.74 0.71 9.0 0 0 34.37 28.07
  Q 35.66 28.60 36.11 29.63
  L 28.59 34.08
  Q 28.37 34.20 28.33 33.96
  Q 27.85 31.17 26.20 30.32
  Q 22.15 28.23 18.07 25.82
  Q 19.25 24.85 20.94 25.16
  A 1.12 1.09 -59.2 0 0 21.84 24.92
  Q 23.83 23.28 25.98 24.75
  Z"
/>
</svg>
